<?xml version="1.0" standalone="no"?><!DOCTYPE svg PUBLIC "-//W3C//DTD SVG 1.1//EN" "http://www.w3.org/Graphics/SVG/1.1/DTD/svg11.dtd"><svg t="1673467639493" class="icon" viewBox="0 0 1024 1024" version="1.1" xmlns="http://www.w3.org/2000/svg" p-id="15110" xmlns:xlink="http://www.w3.org/1999/xlink" width="200" height="200"><path d="M853.32992 307.2H731.99616c11.73504-20.20352 18.93376-43.27424 18.93376-68.27008C750.92992 163.5328 689.82784 102.4 614.4 102.4c-41.03168 0-77.40416 18.46272-102.4 47.06304C487.00416 120.86272 450.60096 102.4 409.6 102.4c-75.42784 0-136.52992 61.1328-136.52992 136.52992 0 24.99584 7.19872 48.06656 18.93376 68.27008H170.67008C133.13024 307.2 102.4 337.93024 102.4 375.45984v68.27008h819.2v-68.27008C921.6 337.93024 890.86976 307.2 853.32992 307.2z m-375.45984 0H409.6c-37.632 0-68.27008-30.59712-68.27008-68.27008s30.63808-68.27008 68.27008-68.27008 68.27008 30.59712 68.27008 68.27008V307.2zM614.4 307.2h-68.27008v-68.27008c0-37.67296 30.63808-68.27008 68.27008-68.27008s68.27008 30.59712 68.27008 68.27008S652.032 307.2 614.4 307.2z m-68.27008 614.4h238.94016c37.5296 0 68.25984-30.74048 68.25984-68.27008V512h-307.2v409.6z m-375.45984-68.27008c0 37.5296 30.73024 68.27008 68.25984 68.27008h238.94016V512h-307.2v341.32992z" p-id="15111" fill="#ffffff"></path></svg>