<?xml version="1.0" standalone="no"?><!DOCTYPE svg PUBLIC "-//W3C//DTD SVG 1.1//EN" "http://www.w3.org/Graphics/SVG/1.1/DTD/svg11.dtd"><svg t="1673467588249" class="icon" viewBox="0 0 1024 1024" version="1.1" xmlns="http://www.w3.org/2000/svg" p-id="12030" xmlns:xlink="http://www.w3.org/1999/xlink" width="200" height="200"><path d="M319.786667 74.666667h384.490666A85.333333 85.333333 0 0 1 772.266667 108.458667l207.594666 273.834666a85.333333 85.333333 0 0 1-6.592 110.805334L573.866667 907.136a85.333333 85.333333 0 0 1-122.688 0.149333L50.88 494.144a85.333333 85.333333 0 0 1-6.805333-110.826667L251.733333 108.544A85.333333 85.333333 0 0 1 319.786667 74.666667z" fill="#ffffff" p-id="12031"></path><path d="M685.482667 350.72a32 32 0 0 1 47.445333 42.816l-2.197333 2.432-196.096 196.096a32 32 0 0 1-42.837334 2.197333l-2.432-2.197333-196.096-196.096a32 32 0 0 1 42.816-47.466667l2.432 2.197334L512 524.181333l173.482667-173.482666z" fill="#ffffff" p-id="12032"></path></svg>